<?xml version="1.0" encoding="UTF-8"?>
<svg width="21px" height="24px" viewBox="0 0 21 24" version="1.1" xmlns="http://www.w3.org/2000/svg" xmlns:xlink="http://www.w3.org/1999/xlink">
    <!-- Generator: Sketch 61.2 (89653) - https://sketch.com -->
    <title>notification</title>
    <desc>Created with Sketch.</desc>
    <g id="Page-1" stroke="none" stroke-width="1" fill="none" fill-rule="evenodd">
        <g id="Timetracker" transform="translate(-1186.000000, -23.000000)" fill="#9CB2CD" fill-rule="nonzero">
            <g id="Top-Bar_timesheets">
                <g id="notification" transform="translate(1186.000000, 23.000000)">
                    <path d="M10.5,24 C12.1556149,24 13.4985755,22.6570313 13.4985755,21 L7.50142451,21 C7.50142451,22.6570313 8.84438508,24 10.5,24 Z M20.5963448,16.9823437 C19.6907253,16.0092187 17.9962044,14.5453125 17.9962044,9.75 C17.9962044,6.1078125 15.4424699,3.1921875 11.9990534,2.476875 L11.9990534,1.5 C11.9990534,0.67171875 11.3278075,0 10.5,0 C9.67219254,0 9.00094663,0.67171875 9.00094663,1.5 L9.00094663,2.476875 C5.5575301,3.1921875 3.00379565,6.1078125 3.00379565,9.75 C3.00379565,14.5453125 1.30927471,16.0092187 0.403655228,16.9823437 C0.122406941,17.2846875 -0.00227980025,17.6460937 3.15268583e-05,18 C0.00522015408,18.76875 0.608497731,19.5 1.50474227,19.5 L19.4952577,19.5 C20.3915023,19.5 20.9952486,18.76875 20.9999685,18 C21.0022798,17.6460937 20.8775931,17.2842187 20.5963448,16.9823437 L20.5963448,16.9823437 Z" id="ico_notification"></path>
                </g>
            </g>
        </g>
    </g>
</svg>