<?xml version="1.0" encoding="UTF-8"?>
<svg width="46px" height="46px" viewBox="0 0 46 46" version="1.1" xmlns="http://www.w3.org/2000/svg" xmlns:xlink="http://www.w3.org/1999/xlink">
    <!-- Generator: Sketch 61.2 (89653) - https://sketch.com -->
    <title>Group 6</title>
    <desc>Created with Sketch.</desc>
    <defs>
        <path d="M45.9273517,22.9638345 C45.9273517,10.2814759 35.6461931,5.25801624e-13 22.9632,5.25801624e-13 C10.2805241,5.25801624e-13 2.7000624e-13,10.2814759 2.7000624e-13,22.9638345 C2.7000624e-13,35.6465103 10.2805241,45.9279862 22.9632,45.9279862 C35.6461931,45.9279862 45.9273517,35.6465103 45.9273517,22.9638345" id="path-1"></path>
    </defs>
    <g id="Page-1" stroke="none" stroke-width="1" fill="none" fill-rule="evenodd">
        <g id="Timetracker" transform="translate(-1241.000000, -12.000000)">
            <g id="Top-Bar_timesheets">
                <g id="profile" transform="translate(1241.000000, 12.000000)">
                    <g id="Group-6">
                        <mask id="mask-2" fill="white">
                            <use xlink:href="#path-1"></use>
                        </mask>
                        <use id="Clip-247" fill="#EFF6FF" xlink:href="#path-1"></use>
                        <path d="M35.2802745,36.0617066 C33.6195082,32.9414461 22.9416276,30.9833793 22.9416276,30.9833793 C22.9416276,30.9833793 12.263747,32.9414461 10.6029807,36.0617066 C9.37538032,40.3918496 8.34852414,45.8937241 8.34852414,45.8937241 L37.534731,45.8937241 C37.534731,45.8937241 36.8413807,39.994443 35.2802745,36.0617066" id="Fill-246" fill="#95C2FF" mask="url(#mask-2)"></path>
                        <path d="M22.9416276,30.9833793 C22.9416276,30.9833793 33.6195082,32.9414461 35.2802745,36.0617066 C36.8413807,39.994443 37.534731,45.8937241 37.534731,45.8937241 L22.9416276,45.8937241 L22.9416276,30.9833793" id="Fill-248" fill="#77A6E7" mask="url(#mask-2)"></path>
                        <polygon id="Fill-249" fill="#95C2FF" mask="url(#mask-2)" points="20.0864552 34.4730345 25.7968 34.4730345 25.7968 24.6385517 20.0864552 24.6385517"></polygon>
                        <polygon id="Fill-250" fill="#77A6E7" mask="url(#mask-2)" points="22.9416276 34.4730345 25.7968 34.4730345 25.7968 24.6385517 22.9416276 24.6385517"></polygon>
                        <path d="M22.9416276,31.3006207 C21.7061459,30.9839353 20.4675177,30.2274289 20.0864552,29.1206224 L20.0864552,24.6385517 L22.9416276,24.6385517 L22.9416276,31.3006207" id="Fill-251" fill="#95C2FF" mask="url(#mask-2)"></path>
                        <path d="M24.1945893,31.6178621 C23.8016403,31.6178621 23.3719836,31.5596439 22.9416276,31.4468236 L22.9416276,24.6385517 L25.7968,24.6385517 L25.7968,31.3477442 C25.2811419,31.5223987 24.7455568,31.6178621 24.1945893,31.6178621" id="Fill-252" fill="#77A6E7" mask="url(#mask-2)"></path>
                        <path d="M30.5554207,18.348128 C30.5554207,12.2462622 27.2176335,8.77648276 23.1002483,8.77648276 C18.9832181,8.77648276 15.6450759,12.2462622 15.6450759,18.348128 C15.6450759,26.5556628 18.9832181,29.3971724 23.1002483,29.3971724 C27.2176335,29.3971724 30.5554207,26.2136524 30.5554207,18.348128" id="Fill-253" fill="#A0C8FF" mask="url(#mask-2)"></path>
                        <path d="M29.5006619,22.7242173 C28.1181013,22.5826134 27.1847731,21.1231673 27.419013,19.4666141 C27.6499845,17.8086378 28.9595494,16.5776082 30.3424731,16.7185006 C31.7243073,16.8597488 32.6565461,18.3181275 32.4230324,19.9764596 C32.1909715,21.6344359 30.8832224,22.8643982 29.5006619,22.7242173" id="Fill-254" fill="#77A6E7" mask="url(#mask-2)"></path>
                        <path d="M13.7773714,19.9764596 C13.5442399,18.3181275 14.4760397,16.8597488 15.8570353,16.7185006 C17.2405729,16.5776082 18.5500312,17.8086378 18.7817102,19.4666141 C19.0152049,21.1231673 18.0812263,22.5826134 16.6995044,22.7242173 C15.3170563,22.8643982 14.0094136,21.6344359 13.7773714,19.9764596" id="Fill-255" fill="#A0C8FF" mask="url(#mask-2)"></path>
                        <path d="M30.5554207,18.348128 C30.5554207,12.2462622 27.1466167,8.77648276 22.9416276,8.77648276 L22.9416276,29.3971724 C27.1466167,29.3971724 30.5554207,26.2136524 30.5554207,18.348128" id="Fill-256" fill="#77A6E7" mask="url(#mask-2)"></path>
                        <path d="M29.8871571,23.3135392 C29.4811641,24.437257 28.794569,25.7881242 27.5539551,25.7881242 C26.0029183,25.7881242 24.8941623,24.5469397 23.114979,24.5469397 L23.1002483,24.5476474 L23.084799,24.5469397 C21.3063343,24.5469397 20.1975783,25.7881242 18.6465415,25.7881242 C17.4059276,25.7881242 16.7196917,24.437257 16.3136988,23.3135392 L15.9623172,21.1488966 L15.9623172,23.7391792 C15.9623172,23.7391792 16.5519052,26.7897756 17.6832962,27.5267731 C18.6052236,28.3331184 21.6135236,29.7144138 23.0844397,29.7144138 L23.084799,29.7144138 L23.1002483,29.7137062 L23.114979,29.7144138 L23.1156976,29.7144138 C24.5873322,29.7144138 27.5956322,28.3331184 28.516841,27.5267731 C29.6485913,26.7897756 30.2381793,23.7391792 30.2381793,23.7391792 L30.2381793,21.1488966 L29.8871571,23.3135392" id="Fill-257" fill="#4E8AFA" mask="url(#mask-2)"></path>
                        <path d="M19.4519724,10.1338157 C19.4519724,10.1338157 20.8567903,15.7632594 28.6825011,18.6109655 C27.9464212,17.3525689 27.8128176,15.829228 27.8128176,15.829228 C27.8128176,15.829228 29.0836719,17.1539498 31.1568676,18.2137273 C32.2944784,15.9622351 33.6319544,12.5842836 30.6220933,10.7300297 C27.6125924,8.87506255 20.4556196,5.56343633 19.4519724,10.1338157" id="Fill-258" fill="#4E8AFA" mask="url(#mask-2)"></path>
                        <path d="M16.8546907,17.9764828 C16.8546907,17.9764828 17.419537,11.6237493 19.7692138,10.218767 C17.7649542,9.33792132 14.7097445,12.019231 15.0345136,13.6557921 C15.3599827,15.2923533 16.8546907,17.9764828 16.8546907,17.9764828" id="Fill-259" fill="#4E8AFA" mask="url(#mask-2)"></path>
                        <path d="M35.2802745,36.0552808 C34.310367,34.2320245 30.2680774,32.8064347 27.070764,31.9351034 C26.9454769,34.0948738 25.1480336,35.8092578 22.9416276,35.8092578 C20.7355775,35.8092578 18.9377783,34.0948738 18.8128471,31.9351034 C15.6151778,32.8064347 11.5732441,34.2320245 10.6029807,36.0552808 C9.37538032,40.3882538 8.34852414,45.8937241 8.34852414,45.8937241 L37.534731,45.8937241 C37.534731,45.8937241 36.8413807,39.9905874 35.2802745,36.0552808" id="Fill-260" fill="#538FFF" mask="url(#mask-2)"></path>
                        <path d="M35.1801655,36.2811517 C35.163669,36.2386414 35.1474897,36.1967655 35.1306759,36.1545724 C35.1474897,36.1964483 35.163669,36.2386414 35.1801655,36.2811517" id="Fill-261" fill="#E6A02E" mask="url(#mask-2)"></path>
                        <path d="M22.9175739,37.0109655 C20.5981664,37.0109655 18.7081871,35.2475034 18.5765995,33.0259048 C15.6922852,33.7945561 12.1602913,34.9846203 10.5692138,36.4910169 C10.5978659,36.3848456 10.6265181,36.2786742 10.6551702,36.1732301 C11.6194381,34.2977791 15.6363959,32.8313785 18.8143061,31.9351034 C18.9384653,34.1567021 20.7251555,35.9201642 22.9175739,35.9201642 C25.1103461,35.9201642 26.8966826,34.1567021 27.0211955,31.9351034 C30.198752,32.8313785 34.2160635,34.2977791 35.1799777,36.1732301 C35.1987254,36.221589 35.2167656,36.2695842 35.2351596,36.3183067 C35.2616893,36.389936 35.2878654,36.4622925 35.3140414,36.5346489 C33.7463101,35.0071635 30.1711611,33.8021917 27.2589021,33.0259048 C27.1273145,35.2475034 25.2373352,37.0109655 22.9175739,37.0109655" id="Fill-262" fill="#3878EE" mask="url(#mask-2)"></path>
                        <path d="M17.5485241,32.2963291 C17.9568722,34.9660983 20.212663,37.0109655 22.941448,37.0109655 C25.6705922,37.0109655 27.9260238,34.9660983 28.334731,32.2963291 C27.9177635,32.1672413 27.5061831,32.046955 27.1078911,31.9351034 C26.981472,34.1758026 25.1677889,35.9544263 22.941448,35.9544263 C20.7154662,35.9544263 18.901424,34.1758026 18.775364,31.9351034 C18.3767129,32.046955 17.9654917,32.1672413 17.5485241,32.2963291" id="Fill-263" fill="#3878EE" mask="url(#mask-2)"></path>
                        <path d="M24.2105931,26.542 C24.2105931,26.542 24.0249089,25.9075172 22.9416276,25.9075172 C21.9511883,25.9075172 21.6726621,26.542 21.6726621,26.542 L24.2105931,26.542" id="Fill-264" fill="#FFFFFE" mask="url(#mask-2)"></path>
                    </g>
                </g>
            </g>
        </g>
    </g>
</svg>